<?xml version="1.0" standalone="no"?>
<!DOCTYPE svg PUBLIC "-//W3C//DTD SVG 20010904//EN"
 "http://www.w3.org/TR/2001/REC-SVG-20010904/DTD/svg10.dtd">
<svg version="1.0" xmlns="http://www.w3.org/2000/svg"
 width="400.000000pt" height="400.000000pt" viewBox="0 0 400.000000 400.000000"
 preserveAspectRatio="xMidYMid meet">
<metadata>
Created by potrace 1.11, written by Peter Selinger 2001-2013
</metadata>
<g transform="translate(0.000000,400.000000) scale(0.100000,-0.100000)"
fill="#000000" stroke="none">
<path d="M1778 3961 c-112 -36 -194 -119 -240 -243 -21 -58 -31 -68 -44 -47
-3 6 -33 28 -65 49 -121 78 -218 75 -311 -9 -104 -93 -144 -253 -99 -399 l21
-70 -29 -59 c-93 -191 -74 -357 53 -454 76 -58 134 -74 266 -74 100 1 125 4
193 29 43 15 79 26 80 24 67 -131 147 -192 252 -192 103 -1 203 71 255 180
l20 44 29 -15 c63 -32 185 -58 276 -57 145 0 243 50 290 147 35 74 3 208 -82
343 l-33 52 30 49 c63 102 100 265 81 363 -27 149 -113 216 -261 206 -84 -6
-163 -42 -228 -102 -52 -48 -62 -54 -62 -33 0 30 -61 136 -102 179 -51 52 -91
75 -163 94 -61 17 -57 17 -127 -5z m177 -66 c83 -40 165 -155 181 -254 4 -25
12 -41 20 -41 8 0 42 28 76 63 80 80 141 110 233 115 91 5 148 -23 185 -89 22
-38 25 -56 25 -134 0 -109 -28 -204 -85 -290 l-38 -57 39 -61 c75 -116 93
-164 94 -249 0 -71 -2 -79 -29 -107 -89 -93 -292 -100 -483 -16 -31 14 -57 25
-59 25 -2 0 -17 -28 -34 -63 -85 -180 -241 -228 -359 -109 -25 26 -57 69 -70
95 -27 56 -24 55 -136 11 -62 -25 -84 -28 -185 -28 -104 -1 -120 1 -170 25
-64 31 -113 77 -142 133 -17 33 -20 53 -16 120 4 69 11 94 48 173 24 53 40
100 37 110 -3 10 -13 38 -22 63 -24 64 -17 199 13 257 34 65 78 110 128 129
38 15 53 15 95 6 57 -14 139 -63 189 -115 42 -44 58 -46 65 -9 28 130 45 170
103 234 54 60 122 90 197 85 33 -2 78 -12 100 -22z"/>
<path d="M2167 2340 l-76 -160 14 -52 c25 -99 120 -157 183 -112 34 23 62 87
62 140 0 47 -87 344 -100 344 -4 0 -41 -72 -83 -160z m132 -10 c44 -145 49
-191 27 -244 -16 -39 -60 -76 -90 -76 -58 0 -127 85 -128 158 0 30 133 314
143 303 4 -3 25 -67 48 -141z"/>
<path d="M1436 2199 c-80 -145 -87 -163 -81 -197 9 -49 27 -81 65 -117 27 -26
38 -30 90 -30 52 0 63 4 90 30 39 37 58 72 65 121 5 33 -5 65 -58 193 -35 85
-68 156 -73 158 -5 1 -49 -69 -98 -158z m164 -14 c67 -164 68 -177 25 -251
-25 -42 -74 -74 -115 -74 -41 0 -90 32 -115 74 -46 79 -45 89 35 232 83 148
100 177 105 172 2 -2 31 -71 65 -153z"/>
<path d="M1799 1730 c-186 -21 -388 -90 -557 -191 -63 -37 -90 -59 -87 -69 5
-15 171 -832 224 -1100 33 -163 30 -160 150 -229 82 -48 217 -95 322 -111 145
-23 352 31 494 128 39 27 71 57 73 68 2 10 45 309 96 664 l94 645 -22 19 c-56
49 -275 134 -413 160 -102 19 -279 27 -374 16z m341 -37 c41 -8 111 -26 155
-40 83 -26 245 -100 245 -112 0 -12 -122 -78 -211 -115 -343 -141 -688 -139
-1030 6 -54 23 -99 45 -99 48 0 3 35 27 78 53 265 160 575 218 862 160z m345
-674 c-36 -250 -75 -521 -87 -604 -11 -82 -22 -152 -24 -153 -1 -2 -26 15 -54
37 -64 50 -176 106 -255 126 -75 19 -212 19 -294 0 -82 -20 -182 -69 -260
-129 -34 -27 -63 -47 -64 -45 -2 2 -24 110 -49 239 -84 418 -188 935 -194 951
-3 12 21 6 103 -27 286 -115 593 -138 876 -64 117 30 254 83 322 124 29 18 41
21 43 12 2 -7 -27 -217 -63 -467z m-460 -604 c88 -18 212 -80 288 -142 l59
-48 -34 -28 c-47 -40 -201 -114 -278 -134 -76 -19 -222 -21 -295 -4 -109 26
-315 131 -315 161 0 5 26 30 58 55 167 133 335 178 517 140z"/>
</g>
</svg>
